<?xml version="1.0" encoding="utf-8"?>
<!-- Generator: Adobe Illustrator 23.0.5, SVG Export Plug-In . SVG Version: 6.00 Build 0)  -->
<svg version="1.1" id="레이어_1" xmlns="http://www.w3.org/2000/svg" xmlns:xlink="http://www.w3.org/1999/xlink" x="0px"
	 y="0px" viewBox="0 0 30 30" style="enable-background:new 0 0 30 30;" xml:space="preserve">
<style type="text/css">
	.st0{fill:#787878;}
</style>
<path class="st0" d="M26.7,19.6h-2.9v-2.9c0-0.6-0.4-1-1-1s-1,0.4-1,1v2.9H19c-0.6,0-1,0.4-1,1s0.4,1,1,1h2.9v2.9c0,0.6,0.4,1,1,1
	s1-0.4,1-1v-2.9h2.9c0.6,0,1-0.4,1-1S27.3,19.6,26.7,19.6z"/>
<g>
	<path class="st0" d="M13,16.4H5.4V9.5c0-1.1,0.9-2,2-2H15v6.9C15,15.5,14.1,16.4,13,16.4z"/>
</g>
<path class="st0" d="M18.7,23.6H3.6V5.9h22.8v10.9h2V5.9c0-1.1-0.9-2-2-2H3.6c-1.1,0-2,0.9-2,2v17.8c0,1.1,0.9,2,2,2h15.1V23.6z"/>
</svg>
