<svg width="24" height="24" viewBox="0 0 24 24" fill="none" xmlns="http://www.w3.org/2000/svg">
<path d="M11.9677 7.47299C11.9677 7.47299 9.20019 7.74839 7.75119 6.54149C6.30219 5.33369 6.63249 3.02698 6.63249 3.02698C6.63249 3.02698 9.39999 2.75158 10.8499 3.95848C12.2989 5.16629 11.9677 7.47299 11.9677 7.47299V7.47299Z" stroke="current" stroke-width="2" stroke-linecap="round" stroke-linejoin="round"/>
<path d="M12.0325 7.47299C12.0325 7.47299 14.8 7.74839 16.249 6.54149C17.698 5.33369 17.3677 3.02698 17.3677 3.02698C17.3677 3.02698 14.6002 2.75158 13.1512 3.95848C11.7022 5.16629 12.0325 7.47299 12.0325 7.47299V7.47299ZM4.80005 11.1C4.80005 10.8613 4.89487 10.6324 5.06365 10.4636C5.23244 10.2948 5.46136 10.2 5.70005 10.2H18.3001C18.5388 10.2 18.7677 10.2948 18.9365 10.4636C19.1053 10.6324 19.2001 10.8613 19.2001 11.1V12.9C19.2001 13.1387 19.1053 13.3676 18.9365 13.5364C18.7677 13.7052 18.5388 13.8 18.3001 13.8H5.70005C5.46136 13.8 5.23244 13.7052 5.06365 13.5364C4.89487 13.3676 4.80005 13.1387 4.80005 12.9V11.1ZM5.70005 13.8H18.3001L16.5001 21H7.50005L5.70005 13.8Z" stroke="current" stroke-width="2" stroke-linecap="round" stroke-linejoin="round"/>
</svg>
