<?xml version="1.0" encoding="utf-8"?>
<!-- Generator: Adobe Illustrator 23.0.5, SVG Export Plug-In . SVG Version: 6.00 Build 0)  -->
<svg version="1.1" id="레이어_1" xmlns="http://www.w3.org/2000/svg" xmlns:xlink="http://www.w3.org/1999/xlink" x="0px"
	 y="0px" viewBox="0 0 100 100" style="enable-background:new 0 0 100 100;" xml:space="preserve">
<style type="text/css">
	.st0{fill:none;stroke:#333333;stroke-width:3;stroke-linecap:round;stroke-linejoin:round;stroke-miterlimit:10;}
	.st1{fill:#FFFFFF;}
	.st2{fill:#DBC7B6;stroke:#333333;stroke-width:3;stroke-linecap:round;stroke-linejoin:round;stroke-miterlimit:10;}
	.st3{fill:#E1FFCA;stroke:#333333;stroke-width:3;stroke-linecap:round;stroke-linejoin:round;stroke-miterlimit:10;}
	.st4{fill:#E1FFCA;}
</style>
<g>
	<polyline class="st0" points="64.3,21.3 68.2,37.4 69.8,44.1 91.4,32.7 76.1,15 	"/>
	<line class="st0" x1="52.7" y1="31.3" x2="67.9" y2="37.2"/>
	<path class="st0" d="M87.9,28.4c0.3-0.2,2.8-1.5,3.1-4.7c0.2-2.2-0.9-3.7-1.6-4.7c-0.3-0.5-2.4-3.5-4.7-3.1c-0.3,0-0.6,0.1-1.6,0.8
		c-1,0.7-1.8,1.1-3.1,2.4"/>
	<path class="st1" d="M14,72.4h67.9c-0.9,1.5-1.5,2.8-1.9,3.9c-1.5,4-1.2,6.5-3.1,7.9c-0.8,0.5-1.6,0.7-2.4,0.8H73H24.2h-3.1
		c-0.6,0-1.6-0.3-2.4-0.8c-2.1-1.3-1.4-4.2-3.1-8.7C15,74.1,14.4,73.1,14,72.4"/>
	<path class="st2" d="M14,72.4h67.9c-0.9,1.5-1.5,2.8-1.9,3.9c-1.5,4-1.2,6.5-3.1,7.9c-0.8,0.5-1.6,0.7-2.4,0.8H73H24.2h-3.1
		c-0.6,0-1.6-0.3-2.4-0.8c-2.1-1.3-1.4-4.2-3.1-8.7C15,74.1,14.4,73.1,14,72.4z"/>
	<path class="st1" d="M25,61.4l-8.4-7.3c-1.9,2.8-1.1,6.4,1.4,8C20,63.6,23,63.3,25,61.4"/>
	<path class="st0" d="M25,61.4l-8.4-7.3c-1.9,2.8-1.1,6.4,1.4,8C20,63.6,23,63.3,25,61.4z"/>
	<line class="st1" x1="25" y1="72.4" x2="25" y2="61.4"/>
	<line class="st0" x1="25" y1="72.4" x2="25" y2="61.4"/>
	<path class="st1" d="M25.1,61.6l8.4-7.3c1.9,2.8,1.1,6.4-1.4,8C30.1,63.8,27.1,63.5,25.1,61.6"/>
	<path class="st0" d="M25.1,61.6l8.4-7.3c1.9,2.8,1.1,6.4-1.4,8C30.1,63.8,27.1,63.5,25.1,61.6z"/>
	<path class="st1" d="M25,61.4l-8.4-7.3c-1.9,2.8-1.1,6.4,1.4,8C20,63.6,23,63.3,25,61.4"/>
	<path class="st3" d="M25,61.4l-8.4-7.3c-1.9,2.8-1.1,6.4,1.4,8C20,63.6,23,63.3,25,61.4z"/>
	<line class="st1" x1="25" y1="72.4" x2="25" y2="61.4"/>
	<line class="st0" x1="25" y1="72.4" x2="25" y2="61.4"/>
	<path class="st1" d="M25.1,61.6l8.4-7.3c1.9,2.8,1.1,6.4-1.4,8C30.1,63.8,27.1,63.5,25.1,61.6"/>
	<path class="st3" d="M25.1,61.6l8.4-7.3c1.9,2.8,1.1,6.4-1.4,8C30.1,63.8,27.1,63.5,25.1,61.6z"/>
	<path class="st4" d="M47.8,56.8l-8.8-8.4c-1.9,3.2-1.1,7.4,1.4,9.3C42.6,59.3,45.7,59,47.8,56.8"/>
	<path class="st0" d="M47.8,56.8l-8.8-8.4c-1.9,3.2-1.1,7.4,1.4,9.3C42.6,59.3,45.7,59,47.8,56.8z"/>
	<path class="st1" d="M48.3,56.8l8.8-8.4c1.9,3.2,1.1,7.4-1.4,9.3C53.5,59.3,50.4,59,48.3,56.8"/>
	<path class="st3" d="M48.3,56.8l8.8-8.4c1.9,3.2,1.1,7.4-1.4,9.3C53.5,59.3,50.4,59,48.3,56.8z"/>
	<line class="st1" x1="47.8" y1="72" x2="47.8" y2="57.1"/>
	<line class="st0" x1="47.8" y1="72" x2="47.8" y2="57.1"/>
	<path class="st1" d="M70.6,61l-8.4-7.3c-1.9,2.8-1.1,6.4,1.4,8C65.6,63.2,68.6,62.9,70.6,61"/>
	<path class="st3" d="M70.6,61l-8.4-7.3c-1.9,2.8-1.1,6.4,1.4,8C65.6,63.2,68.6,62.9,70.6,61z"/>
	<line class="st1" x1="70.6" y1="72" x2="70.6" y2="61"/>
	<line class="st0" x1="70.6" y1="72" x2="70.6" y2="61"/>
	<path class="st1" d="M70.7,61.2l8.4-7.3c1.9,2.8,1.1,6.4-1.4,8C75.7,63.4,72.7,63.1,70.7,61.2"/>
	<path class="st3" d="M70.7,61.2l8.4-7.3c1.9,2.8,1.1,6.4-1.4,8C75.7,63.4,72.7,63.1,70.7,61.2z"/>
	<path class="st0" d="M47,30.6c0,0.1,0,0.2,0,0.4c-0.3,0.9-0.6,1.7-1.1,2.5c-0.4,0.7-1,1.4-1.7,1.8c-0.8,0.4-1.8,0.3-2.3-0.4
		c-0.5-0.6-0.4-1.6,0.1-2.3s1.2-1.1,2-1.4c0.6-0.2,1.3-0.4,1.9-0.6C46.1,30.6,46.9,30.3,47,30.6z"/>
	<path class="st0" d="M52.2,38.3c0.1,0,0.1,0.1,0.2,0.3c0.2,0.9,0.3,1.8,0.3,2.7c0,0.8-0.1,1.7-0.6,2.4s-1.4,1.1-2.2,0.8
		c-0.8-0.3-1.2-1.2-1.1-2c0.1-0.8,0.5-1.5,1-2.2c0.4-0.5,0.9-1,1.4-1.5C51.4,38.7,51.9,38.1,52.2,38.3z"/>
</g>
</svg>
