<?xml version="1.0" encoding="utf-8"?>
<!-- Generator: Adobe Illustrator 23.0.5, SVG Export Plug-In . SVG Version: 6.00 Build 0)  -->
<svg version="1.1" id="레이어_1" xmlns="http://www.w3.org/2000/svg" xmlns:xlink="http://www.w3.org/1999/xlink" x="0px"
	 y="0px" viewBox="0 0 100 100" style="enable-background:new 0 0 100 100;" xml:space="preserve">
<style type="text/css">
	.st0{fill:#E1FFCA;stroke:#333333;stroke-width:3;stroke-linecap:round;stroke-linejoin:round;stroke-miterlimit:10;}
	.st1{fill:none;stroke:#333333;stroke-width:3;stroke-linecap:round;stroke-linejoin:round;stroke-miterlimit:10;}
	.st2{fill:none;}
	.st3{fill:#FFFFFF;}
	.st4{fill:#F2D9FF;stroke:#333333;stroke-width:3;stroke-miterlimit:10;}
</style>
<g>
	<path class="st0" d="M42.4,65.7l13.2-12.4c3,4.6,1.9,10.8-2,13.6C50.4,69.3,45.6,68.9,42.4,65.7L42.4,65.7z"/>
	<path class="st1" d="M42.4,65.7l13.2-12.4c3,4.6,1.9,10.8-2,13.6C50.4,69.3,45.6,68.9,42.4,65.7z"/>
	<path class="st1" d="M10.4,78.8c1.9-2.4,3.2-5.2,5.2-7.4c1.9-2.2,5-4.1,8-3.4c2.7,0.6,3.8,3.3,6,4.6c1.5,0.9,3.4,1,5.1,0.8
		c3.3-0.2,6.6-0.4,9.9-0.2c2.2,0.1,4.6,0.4,6.7-0.3c1.9-0.6,3.1-2.3,4.8-3.3c1.9-1,4.3-0.8,6.2,0.1c2.4,1.2,4.5,3.5,5.8,5.8"/>
	<path class="st1" d="M67.8,73.2c1.9-0.9,3.6-2.5,5.8-2.6c2.2-0.1,4.1,1.5,5.4,3.1c2,2.3,3.6,5.1,5,7.9"/>
	<path class="st0" d="M40.3,65.9L26.9,53.3c-3.1,4.7-1.9,10.9,2,13.8C32.2,69.5,37.1,69.1,40.3,65.9L40.3,65.9z"/>
	<path class="st1" d="M40.3,65.9L26.9,53.3c-3.1,4.7-1.9,10.9,2,13.8C32.2,69.5,37.1,69.1,40.3,65.9z"/>
	<line class="st2" x1="41.3" y1="71.5" x2="41.3" y2="44.9"/>
	<line class="st1" x1="41.3" y1="71.5" x2="41.3" y2="44.9"/>
	<path class="st3" d="M68,41l-5.5,12.9c-0.4,0.9-0.4,1.9,0,2.8l2.8,6.9c0.8,1.9,2.9,2.8,4.8,2l6.7-2.9c0.9-0.4,1.6-1.1,1.9-1.9
		l5.5-12.9c0.8-1.8-0.1-4-1.9-4.8l-6.9-2.9l-2.6-1.1C70.9,38.3,68.8,39.2,68,41L68,41z"/>
	<path class="st1" d="M68,41l-5.5,12.9c-0.4,0.9-0.4,1.9,0,2.8l2.8,6.9c0.8,1.9,2.9,2.8,4.8,2l6.7-2.9c0.9-0.4,1.6-1.1,1.9-1.9
		l5.5-12.9c0.8-1.8-0.1-4-1.9-4.8l-6.9-2.9l-2.6-1.1C70.9,38.3,68.8,39.2,68,41z"/>
	<polyline class="st1" points="75.4,40.2 78,33.9 82.7,35.9 80.1,42.2 	"/>
	<path class="st3" d="M84.2,35.3l0.5-1.1c0.1-0.3,0.2-0.6,0.2-0.9l0-0.5c0-0.7,0.2-1.3,0.7-1.7l0.4-0.4c0.2-0.2,0.4-0.5,0.6-0.8
		l1.4-3.4c0.1-0.3,0.2-0.6,0.2-0.9l0-0.5c0-0.7,0.2-1.3,0.7-1.7l0.4-0.4c0.2-0.2,0.4-0.5,0.6-0.8l0.5-1.1c0.4-1.1,0-2.3-1.1-2.7
		l-3-1.3c-1.1-0.4-2.3,0-2.7,1.1l-0.5,1.1c-0.1,0.3-0.2,0.6-0.2,0.9l0,0.5c0,0.7-0.2,1.3-0.7,1.7l-0.4,0.4c-0.2,0.2-0.4,0.5-0.6,0.8
		L79.7,27c-0.1,0.3-0.2,0.6-0.2,0.9l0,0.5c0,0.7-0.2,1.3-0.7,1.7l-0.4,0.4c-0.2,0.2-0.4,0.5-0.6,0.8l-0.5,1.1
		c-0.4,1.1,0,2.3,1.1,2.7l3,1.3C82.5,36.8,83.7,36.3,84.2,35.3L84.2,35.3z"/>
	<path class="st1" d="M84.2,35.3l0.5-1.1c0.1-0.3,0.2-0.6,0.2-0.9l0-0.5c0-0.7,0.2-1.3,0.7-1.7l0.4-0.4c0.2-0.2,0.4-0.5,0.6-0.8
		l1.4-3.4c0.1-0.3,0.2-0.6,0.2-0.9l0-0.5c0-0.7,0.2-1.3,0.7-1.7l0.4-0.4c0.2-0.2,0.4-0.5,0.6-0.8l0.5-1.1c0.4-1.1,0-2.3-1.1-2.7
		l-3-1.3c-1.1-0.4-2.3,0-2.7,1.1l-0.5,1.1c-0.1,0.3-0.2,0.6-0.2,0.9l0,0.5c0,0.7-0.2,1.3-0.7,1.7l-0.4,0.4c-0.2,0.2-0.4,0.5-0.6,0.8
		L79.7,27c-0.1,0.3-0.2,0.6-0.2,0.9l0,0.5c0,0.7-0.2,1.3-0.7,1.7l-0.4,0.4c-0.2,0.2-0.4,0.5-0.6,0.8l-0.5,1.1
		c-0.4,1.1,0,2.3,1.1,2.7l3,1.3C82.5,36.8,83.7,36.3,84.2,35.3z"/>
	<line class="st2" x1="73.7" y1="50.7" x2="69.1" y2="61.3"/>
	<line class="st1" x1="73.7" y1="50.7" x2="69.1" y2="61.3"/>
	<path class="st3" d="M40.9,52.7l-8.3-7.8c-1.9,2.9-1.2,6.8,1.2,8.5C35.9,54.9,38.9,54.7,40.9,52.7L40.9,52.7z"/>
	<path class="st0" d="M40.9,52.7l-8.3-7.8c-1.9,2.9-1.2,6.8,1.2,8.5C35.9,54.9,38.9,54.7,40.9,52.7z"/>
	<path class="st3" d="M41.8,52.7l8.4-7.7c1.8,2.9,1.1,6.8-1.3,8.5C46.8,55,43.8,54.8,41.8,52.7L41.8,52.7z"/>
	<path class="st0" d="M41.8,52.7l8.4-7.7c1.8,2.9,1.1,6.8-1.3,8.5C46.8,55,43.8,54.8,41.8,52.7z"/>
	<path class="st4" d="M35.4,35.9c-0.6,2.5,1.7,7,4.2,8.1c2.9,1.3,5.3-2.1,6.5-5.2c1.1-2.9-0.1-6.7-2.9-7.8
		C40,29.8,36.1,32.5,35.4,35.9z"/>
</g>
</svg>
