<?xml version="1.0" encoding="utf-8"?>
<!-- Generator: Adobe Illustrator 23.0.5, SVG Export Plug-In . SVG Version: 6.00 Build 0)  -->
<svg version="1.1" id="레이어_1" xmlns="http://www.w3.org/2000/svg" xmlns:xlink="http://www.w3.org/1999/xlink" x="0px"
	 y="0px" viewBox="0 0 100 100" style="enable-background:new 0 0 100 100;" xml:space="preserve">
<style type="text/css">
	.st0{fill:#FFFFFF;}
	.st1{fill:none;stroke:#333333;stroke-width:3;stroke-linecap:round;stroke-linejoin:round;stroke-miterlimit:10;}
	.st2{fill:#8AFFD5;}
	.st3{fill:#F2D9FF;}
	.st4{fill:#E3AAFF;}
</style>
<g>
	<path class="st0" d="M73.1,64.8l-8.7-0.9c-0.4,0-3.1,1.6-3.5,1.7l-3.3,1.4c-0.6,0.3-1.4,0.3-2,0.1l-3-0.8c-0.9-0.2-1.6-0.8-2.1-1.5
		l0,0c-0.4-0.7-0.5-1.6-0.4-2.4l0.2-0.7c0.2-0.7,0.1-1.5-0.3-2.2l-0.1-0.2c-0.5-0.9-0.5-2,0-3l0.1-0.1c0.4-0.7,0.4-1.5,0.3-2.3
		l-0.1-0.6c-0.2-0.6-0.1-1.3,0.1-1.9l0.1-0.2c0.4-1,1.1-1.7,2.1-2l1.8-0.5c0.7-0.2,1.5-0.2,2.2,0.1l4.6,2.8c0.4,0.2,1.3,0.9,1.7,0.9
		L73.1,50"/>
	<path class="st1" d="M73.1,64.8l-8.7-0.9c-0.4,0-3.1,1.6-3.5,1.7l-3.3,1.4c-0.6,0.3-1.4,0.3-2,0.1l-3-0.8c-0.9-0.2-1.6-0.8-2.1-1.5
		l0,0c-0.4-0.7-0.5-1.6-0.4-2.4l0.2-0.7c0.2-0.7,0.1-1.5-0.3-2.2l-0.1-0.2c-0.5-0.9-0.5-2,0-3l0.1-0.1c0.4-0.7,0.4-1.5,0.3-2.3
		l-0.1-0.6c-0.2-0.6-0.1-1.3,0.1-1.9l0.1-0.2c0.4-1,1.1-1.7,2.1-2l1.8-0.5c0.7-0.2,1.5-0.2,2.2,0.1l4.6,2.8c0.4,0.2,1.3,0.9,1.7,0.9
		L73.1,50"/>
	<path class="st0" d="M54.1,48.8l-3.3-4.4c-0.3-0.3-0.4-0.7-0.5-1.1l-0.4-1.6c-0.8-3.1-2.4-6-4.7-8.3"/>
	<path class="st1" d="M54.1,48.8l-3.3-4.4c-0.3-0.3-0.4-0.7-0.5-1.1l-0.4-1.6c-0.8-3.1-2.4-6-4.7-8.3"/>
	<path class="st0" d="M55.7,48.3l-2.1-9.8c-0.3-1.6-0.4-3.2-0.2-4.8l0.8-6.3"/>
	<path class="st1" d="M55.7,48.3l-2.1-9.8c-0.3-1.6-0.4-3.2-0.2-4.8l0.8-6.3"/>
	<path class="st0" d="M58,50l0.8-6.5c0.2-2,0.9-4,2-5.8l1-1.7"/>
	<path class="st1" d="M58,50l0.8-6.5c0.2-2,0.9-4,2-5.8l1-1.7"/>
	<line class="st0" x1="59.9" y1="66.5" x2="62.5" y2="75.2"/>
	<line class="st1" x1="59.9" y1="66.5" x2="62.5" y2="75.2"/>
	<line class="st0" x1="55.6" y1="67.2" x2="54.1" y2="76.9"/>
	<line class="st1" x1="55.6" y1="67.2" x2="54.1" y2="76.9"/>
	<line class="st0" x1="62.2" y1="65" x2="67" y2="70.9"/>
	<line class="st1" x1="62.2" y1="65" x2="67" y2="70.9"/>
	<path class="st2" d="M65.1,35.6l8.5-2.5c0.4,2.6-1.3,5-3.6,5.4C68,38.8,66,37.6,65.1,35.6"/>
	<path class="st1" d="M65.1,35.6l8.5-2.5c0.4,2.6-1.3,5-3.6,5.4C68,38.8,66,37.6,65.1,35.6z"/>
	<path class="st2" d="M62.7,32.4l-0.1-8.8c-2.6,0.3-4.4,2.7-4.1,5C58.7,30.6,60.5,32.2,62.7,32.4"/>
	<path class="st1" d="M62.7,32.4l-0.1-8.8c-2.6,0.3-4.4,2.7-4.1,5C58.7,30.6,60.5,32.2,62.7,32.4z"/>
	<path class="st3" d="M49.4,17c-0.4,1.9,1.3,5.4,3.3,6.3c2.3,1,4.2-1.7,5-4c0.8-2.3-0.1-5.2-2.3-6.1C53,12.3,50,14.4,49.4,17"/>
	<path class="st1" d="M49.4,17c-0.4,1.9,1.3,5.4,3.3,6.3c2.3,1,4.2-1.7,5-4c0.8-2.3-0.1-5.2-2.3-6.1C53,12.3,50,14.4,49.4,17z"/>
	<path class="st4" d="M39.8,25.1c-0.3,1.3,0.9,3.8,2.3,4.4c1.6,0.7,2.9-1.2,3.5-2.8c0.6-1.6-0.1-3.6-1.6-4.2
		C42.3,21.8,40.2,23.3,39.8,25.1"/>
	<path class="st1" d="M39.8,25.1c-0.3,1.3,0.9,3.8,2.3,4.4c1.6,0.7,2.9-1.2,3.5-2.8c0.6-1.6-0.1-3.6-1.6-4.2
		C42.3,21.8,40.2,23.3,39.8,25.1z"/>
	<path class="st2" d="M32.6,32.7l8.8,1c-0.6,2.6-3.1,4.1-5.4,3.5C34,36.8,32.5,34.9,32.6,32.7"/>
	<path class="st1" d="M32.6,32.7l8.8,1c-0.6,2.6-3.1,4.1-5.4,3.5C34,36.8,32.5,34.9,32.6,32.7z"/>
	<path class="st0" d="M32.2,59.5c2.9,9-8.9,17-5.7,22.6c1.8,3.2,7.5,4,9.8,3.9c1.8,0,4.1-0.5,6.4-2.5c4.5-4-1.7-10.4-3.1-14.6
		c0,0-1.2-3.3-1.3-3.6c-0.4-1.3-0.6-1.9-0.9-3.1C37,60.4,37,58.8,37,58.7c0-0.8,0.3-3.3,2.9-5.5c-3.7-0.9-7.3-1.1-10.5-0.7
		c0,0,0,0-0.1,0L32.2,59.5z"/>
	<path class="st1" d="M31.9,59.6c0.6,2.7,0.7,5.4-0.4,8.2c-1.5,3.7-4.6,6.8-5.3,10.9c-0.2,1.2-0.2,2.4,0.4,3.5
		c0.5,1,1.5,1.8,2.5,2.3c3.5,2.1,7.9,2.2,11.6,0.5c1.2-0.6,2.3-1.4,3-2.5c1.7-2.8,0-5.9-1.3-8.4c-1.5-2.8-3-5.7-3.9-8.8
		c-0.7-2.4-1.2-4.9-1.1-7.4c0.1-2.1,0.7-4.2,2.1-5.7c-0.1,0.1-1.9-0.4-2.1-0.4c-0.8-0.1-1.7-0.1-2.5-0.1c-1.7,0.1-3.3,0.3-5,0.7
		c-0.1,0-0.2,0-0.3,0.1c-0.2,0.1-0.1,0.4-0.1,0.6C30.5,55.3,31.4,57.4,31.9,59.6z"/>
	<line class="st0" x1="27" y1="78.1" x2="43.5" y2="78.1"/>
	<line class="st1" x1="27" y1="78.1" x2="43.5" y2="78.1"/>
</g>
</svg>
