<?xml version="1.0" encoding="utf-8"?>
<!-- Generator: Adobe Illustrator 23.0.5, SVG Export Plug-In . SVG Version: 6.00 Build 0)  -->
<svg version="1.1" id="레이어_1" xmlns="http://www.w3.org/2000/svg" xmlns:xlink="http://www.w3.org/1999/xlink" x="0px"
	 y="0px" viewBox="0 0 100 100" style="enable-background:new 0 0 100 100;" xml:space="preserve">
<style type="text/css">
	.st0{fill:none;stroke:#333333;stroke-width:3;stroke-linecap:round;stroke-linejoin:round;stroke-miterlimit:10;}
	.st1{fill:#F2D9FF;}
</style>
<path class="st0" d="M31.3,44.4V49c0,3.5,2.9,6.4,6.4,6.4h26.9c3.5,0,6.4-2.9,6.4-6.4v-4.6"/>
<line class="st0" x1="51.2" y1="36.3" x2="51.2" y2="63.9"/>
<path class="st1" d="M43.7,24.2c-0.8,3.3,2.3,9.4,5.6,10.9c3.9,1.8,7.2-2.9,8.7-7c1.4-3.9-0.2-9-3.9-10.4
	C49.9,16.1,44.8,19.7,43.7,24.2"/>
<path class="st0" d="M43.7,24.2c-0.8,3.3,2.3,9.4,5.6,10.9c3.9,1.8,7.2-2.9,8.7-7c1.4-3.9-0.2-9-3.9-10.4
	C49.9,16.1,44.8,19.7,43.7,24.2z"/>
<path class="st1" d="M63.5,32.7c-0.8,3.3,2.3,9.4,5.6,10.9c3.9,1.8,7.2-2.9,8.7-7c1.4-3.9-0.2-9-3.9-10.4
	C69.7,24.6,64.6,28.2,63.5,32.7"/>
<path class="st0" d="M63.5,32.7c-0.8,3.3,2.3,9.4,5.6,10.9c3.9,1.8,7.2-2.9,8.7-7c1.4-3.9-0.2-9-3.9-10.4
	C69.7,24.6,64.6,28.2,63.5,32.7z"/>
<path class="st1" d="M22.5,32.7c-0.8,3.3,2.3,9.4,5.6,10.9c3.9,1.8,7.2-2.9,8.7-7c1.4-3.9-0.2-9-3.9-10.4
	C28.7,24.6,23.6,28.2,22.5,32.7"/>
<path class="st0" d="M22.5,32.7c-0.8,3.3,2.3,9.4,5.6,10.9c3.9,1.8,7.2-2.9,8.7-7c1.4-3.9-0.2-9-3.9-10.4
	C28.7,24.6,23.6,28.2,22.5,32.7z"/>
<line class="st0" x1="21.9" y1="16.7" x2="23.2" y2="20.6"/>
<line class="st0" x1="30.7" y1="13.5" x2="31.5" y2="18.3"/>
<line class="st0" x1="45.2" y1="7.5" x2="46.4" y2="11.8"/>
<line class="st0" x1="55.8" y1="6.3" x2="55.3" y2="10.8"/>
<line class="st0" x1="68" y1="16.1" x2="68.8" y2="20.6"/>
<line class="st0" x1="77.3" y1="16.6" x2="76.3" y2="20.8"/>
<path class="st0" d="M31.2,64.7l40,0.1l-1.3,3.5c-1,2.7-1.6,5.5-1.7,8.4l-0.6,9.5c-0.1,2.3-2,4.2-4.1,4.2l-23.6-0.1
	c-2.2,0-4-1.8-4.1-4.1l-0.6-8.4c-0.2-3.6-1.2-7.2-2.7-10.4L31.2,64.7z"/>
</svg>
