<?xml version="1.0" encoding="utf-8"?>
<!-- Generator: Adobe Illustrator 23.0.5, SVG Export Plug-In . SVG Version: 6.00 Build 0)  -->
<svg version="1.1" id="레이어_1" xmlns="http://www.w3.org/2000/svg" xmlns:xlink="http://www.w3.org/1999/xlink" x="0px"
	 y="0px" viewBox="0 0 100 100" style="enable-background:new 0 0 100 100;" xml:space="preserve">
<style type="text/css">
	.st0{fill:#E5FFDF;}
	.st1{fill:none;stroke:#333333;stroke-width:3;stroke-linecap:round;stroke-linejoin:round;stroke-miterlimit:10;}
</style>
<g>
	<path class="st0" d="M69.3,44.8L69.3,44.8v-0.8c0-1.6-0.1-3.1-0.3-4.7l-0.7-6.1c0-0.6-0.2-1.2-0.6-1.7c-1.2-1.6-3.5-1.6-4.7,0
		l-0.6,0.8l0.5-3.7c0.3-2.6,0.3-5.3-0.1-7.9l-0.3-2.1c0-0.6-0.2-1.2-0.6-1.7l-0.1-0.2c-1.1-1.5-3.4-1.6-4.6-0.1l-0.6,0.7v-5.1
		c0-1-0.3-1.9-0.9-2.6l-0.4-0.4c-0.7-0.8-2.2-2.2-3.7-2.3c-1.2,0-2.5,1.2-3.1,1.7c-1,0.8-1.6,2-1.6,3.2v5.8l-1.6-1.6
		c-1.2-1.2-3.2-1.1-4.2,0.3c-0.4,0.6-0.8,1.6-1,2.2c-0.6,3.9-0.7,7.9-0.2,11.8l0.2,1.7L39,30.9c-1.3-1.3-3.6-1.1-4.6,0.6l-0.1,0.1
		c-0.5,0.8-0.9,2.3-0.9,3.3l-0.6,3.8c-0.6,3.9-0.2,7.8,1,11.5c1.4,4.2,4.8,7.6,9,9l2.5,0.8c2.9,1,7.7,1.2,10.7,0.5
		c1-0.2,2-0.6,2.9-1C64.9,57.1,69.4,51.1,69.3,44.8z"/>
	<path class="st1" d="M69.2,44.8c0.2-3.3-0.3-6.7-0.6-10c-0.1-0.8-0.1-1.6-0.4-2.4c-0.3-0.8-0.8-1.5-1.5-1.9
		c-1.2-0.6-2.8-0.1-3.6,0.9l-0.6,0.8c0,0,0.5-3.7,0.5-3.7c0.3-2.2,0.3-4.5,0.1-6.7C62.9,20,62.7,17,61,16c-1.2-0.7-2.8-0.5-3.7,0.6
		c0,0-0.6,0.7-0.6,0.7c0.1-0.1,0-0.9,0-1.1c0-0.4,0-0.9,0-1.3c0-0.9,0-1.8-0.1-2.7c-0.2-1.8-1.1-3.3-2.5-4.4C53.5,7.3,52.7,7,51.9,7
		c-2.1-0.1-3.9,1.6-4.6,3.5c-0.5,1.4-0.3,2.8-0.3,4.2c0,0.6,0,1.3,0,2c0,0.1-0.1,0.9,0,1c0,0-1.6-1.6-1.6-1.6
		c-1.2-1.2-3.2-1.1-4.2,0.3c-0.4,0.6-0.8,1.6-1,2.2c-0.6,3.9-0.7,7.9-0.2,11.8l0.2,1.7c0,0-1.2-1.2-1.2-1.2c-1.1-1.1-2.8-1.1-4-0.1
		c-1.6,1.3-1.7,3.5-1.9,5.4c-0.9,6.7-0.9,14.6,4.3,19.7c4.7,4.6,12.6,6.3,18.9,4.8c5.7-1.4,10.8-6,12.3-11.7
		C68.9,47.5,69.1,46.1,69.2,44.8z"/>
	<line class="st1" x1="47.9" y1="69.4" x2="47.9" y2="60.7"/>
	<line class="st1" x1="56.1" y1="60.6" x2="56.1" y2="69.4"/>
	<path class="st1" d="M35.4,71L67.7,71l-1.1,2.7c-0.8,2-1.3,4.2-1.4,6.4l-0.4,7.2c-0.1,1.8-1.6,3.1-3.3,3.1l-19.1,0
		c-1.8,0-3.2-1.4-3.3-3.1l-0.5-6.3c-0.2-2.7-0.9-5.4-2.2-7.9L35.4,71z"/>
	<path class="st1" d="M73.2,19.6c-1.6,0-3.1,1.1-3.8,2.5c-0.7,1.3-0.9,3.1-0.4,4.5c0.5,1.4,2.5,2.8,3.9,1.5c1.1-1.1-0.3-3.1-1.5-3.5
		c-3-1.2-5.8,2.2-6.5,4.7"/>
	<path class="st1" d="M32.1,40.2c-0.8-2-2.6-3.7-4.8-3.7c-1.3,0-2.6,0.5-3.5,1.4c-0.7,0.7-1.3,1.7-1,2.6c0.3,0.8,1.3,1.3,2.2,1
		s1.5-1,1.7-1.9c0.6-3-3-5.6-5.7-5.8"/>
	<path class="st1" d="M81.8,51.2c-1-0.9-2.3-1.7-3.7-1.7c-1.2,0-2.3,0.5-3.2,1.2c-0.6,0.4-1.2,0.9-1.6,1.6c-0.4,0.6-0.6,1.4-0.4,2.1
		s0.8,1.3,1.6,1.4c0.8,0.1,1.6-0.5,1.9-1.2c0.8-1.7-0.3-3.3-1.8-4.1c-1.7-0.9-3.8-1.2-5.6-0.5"/>
	<line class="st1" x1="39.7" y1="39.4" x2="39.7" y2="46.9"/>
	<line class="st1" x1="47" y1="26.4" x2="47" y2="32.2"/>
	<line class="st1" x1="60.9" y1="41.6" x2="60.9" y2="49.5"/>
</g>
</svg>
