<?xml version="1.0" encoding="utf-8"?>
<!-- Generator: Adobe Illustrator 23.0.5, SVG Export Plug-In . SVG Version: 6.00 Build 0)  -->
<svg version="1.1" id="레이어_1" xmlns="http://www.w3.org/2000/svg" xmlns:xlink="http://www.w3.org/1999/xlink" x="0px"
	 y="0px" viewBox="0 0 100 100" style="enable-background:new 0 0 100 100;" xml:space="preserve">
<style type="text/css">
	.st0{fill:none;stroke:#333333;stroke-width:3;stroke-linecap:round;stroke-linejoin:round;stroke-miterlimit:10;}
	.st1{fill:#E5FFDF;stroke:#333333;stroke-width:3;stroke-miterlimit:10;}
</style>
<g>
	<path class="st0" d="M20,68.4l36.8,0.1l-1.2,3.3c-0.9,2.5-1.4,5.1-1.6,7.7l-0.5,8.8c-0.1,2.1-1.8,3.8-3.8,3.8l-21.7-0.1
		c-2,0-3.6-1.7-3.8-3.8l-0.5-7.7c-0.2-3.3-1.1-6.6-2.5-9.6L20,68.4z"/>
	<path class="st1" d="M26.5,67.2V48.1c0-2.4,1.7-4.4,3.9-4.4c2.1,0,3.9,1.9,3.9,4.4v19.1"/>
	<path class="st1" d="M34.8,67.2V36.5c0-2.3,1.7-4.3,3.9-4.3c2.1,0,3.9,1.9,3.9,4.3v30.7"/>
	<path class="st1" d="M43.1,67V47.9c0-2.4,1.8-4.4,4.1-4.4c2.2,0,4.1,1.9,4.1,4.4V67"/>
	<path class="st0" d="M66.4,64l-6.9-19.4c-0.1-0.2-0.1-0.4-0.1-0.7c0-1.2,0.7-3.2,1.5-3.8c0.7-0.7,1.6-1,2.6-0.8
		c0.5,0.1,1,0.3,2.1,0.8l18.9,9.2c3,1.8,3.9,7.4-0.6,7.4l-4.6-0.9"/>
	<path class="st0" d="M79.3,56.1c2.4,3.1,1.6,8.3-3.2,6.6l-2.5-2"/>
	<path class="st0" d="M73.2,60.9c0.7,3.2-1.4,7.4-4.3,6.6c-0.9-0.2-1.5-0.9-1.8-1.8L66.4,64"/>
	<path class="st0" d="M28.6,7l-0.9,5c-0.3,1.7-1.3,3.3-2.6,4.2l-1.2,0.9l1.6,1.4c1.1,1,1.9,2.3,2.3,3.8l1.5,5.4l1.6-5.7
		c0.4-1.3,1.1-2.4,2-3.2l1.8-1.5l-2-1.7c-0.8-0.7-1.4-1.6-1.8-2.6L28.6,7z"/>
	<path class="st0" d="M50.2,16.1L49.5,20c-0.2,1.3-1,2.5-2,3.3L46.6,24l1.2,1.1c0.8,0.8,1.5,1.8,1.8,2.9l1.2,4.2l1.2-4.4
		c0.3-1,0.8-1.9,1.6-2.5l1.4-1.1l-1.6-1.3c-0.6-0.5-1.1-1.2-1.4-2L50.2,16.1z"/>
	<line class="st0" x1="48" y1="51.6" x2="51.2" y2="51.6"/>
	<line class="st0" x1="44.4" y1="58.5" x2="46.6" y2="58.5"/>
	<line class="st0" x1="38.8" y1="40.1" x2="42.3" y2="40.1"/>
	<line class="st0" x1="35.2" y1="47.4" x2="37.9" y2="47.4"/>
	<line class="st0" x1="39.8" y1="54.8" x2="42.5" y2="54.8"/>
	<line class="st0" x1="35.2" y1="62.1" x2="37.9" y2="62.1"/>
	<line class="st0" x1="31.5" y1="51.1" x2="34.2" y2="51.1"/>
	<line class="st0" x1="26.9" y1="56.6" x2="29.6" y2="56.6"/>
	<line class="st0" x1="30.8" y1="64" x2="33.8" y2="64"/>
</g>
</svg>
