<?xml version="1.0" encoding="utf-8"?>
<!-- Generator: Adobe Illustrator 23.0.5, SVG Export Plug-In . SVG Version: 6.00 Build 0)  -->
<svg version="1.1" id="레이어_1" xmlns="http://www.w3.org/2000/svg" xmlns:xlink="http://www.w3.org/1999/xlink" x="0px"
	 y="0px" viewBox="0 0 100 100" style="enable-background:new 0 0 100 100;" xml:space="preserve">
<style type="text/css">
	.st0{fill:none;stroke:#333333;stroke-width:3;stroke-linecap:round;stroke-linejoin:round;stroke-miterlimit:10;}
	.st1{fill:#E5FFDF;}
	.st2{fill:#FFFFFF;}
</style>
<g>
	<path class="st0" d="M7,57.7l13.2-3.4c0.7-0.2,1.5,0.4,1.7,1.2l1.1,4.2c0.2,0.9-0.2,1.7-0.9,1.9L8.8,65c-0.7,0.2-1.5-0.4-1.7-1.2
		l-1.1-4.2C5.9,58.7,6.3,57.9,7,57.7z"/>
	<line class="st0" x1="21.8" y1="55.5" x2="28.2" y2="53.8"/>
	<line class="st0" x1="23" y1="59.9" x2="28.5" y2="58.5"/>
	<path class="st0" d="M25.7,81l2-13.5c0.1-0.7,0.9-1.2,1.8-1.1l4.4,0.7c0.9,0.1,1.6,0.8,1.4,1.6l-2,13.5c-0.1,0.7-0.9,1.2-1.8,1.1
		l-4.4-0.7C26.2,82.4,25.6,81.7,25.7,81z"/>
	<line class="st0" x1="30.7" y1="60.2" x2="29.9" y2="65.7"/>
	<line class="st0" x1="34.6" y1="66.4" x2="35.4" y2="60.5"/>
	<path class="st0" d="M36,51.2l0.6,0.5c2,1.7,2.1,4.7,0.3,6.9c-1.8,2.1-4.9,2.5-6.8,0.9L29.5,59c-2-1.7-2.1-4.7-0.3-6.9
		C31,49.9,34.1,49.5,36,51.2z"/>
	<path class="st0" d="M38.3,49.4l4.5-21.6l-4.2,2.7c-2.9,1.9-5.3,4.5-6.9,7.5c-0.7,1.2-1.2,2.5-1.5,3.9c-0.8,2.7-0.8,5.5-0.4,8.3
		l0.1,0.5"/>
	<path class="st0" d="M36.5,50.6L59,44.1l-2.4,4.4c-1.7,3-4.1,5.6-7,7.4c-2.1,1.3-4.5,2.2-6.9,2.7c-1.7,0.3-3.5,0.1-5.2-0.4"/>
	<path class="st0" d="M32.1,54.2"/>
	<path class="st0" d="M72.5,16.1l-4.3,14.2c-1.7,5.5-2.2,11.4-1.4,17.1c0.6,4.2,0.5,8.6-0.3,12.8l-5,25.6"/>
	<path class="st0" d="M80,12.5l-5.6,19.3c-1.7,5.5-2.2,11.4-1.4,17.1c0.6,4.2,0.5,8.6-0.3,12.8l-5,25.6"/>
	<line class="st0" x1="73.8" y1="58.7" x2="82.4" y2="54.6"/>
	<path class="st1" d="M79.2,55.9l10.4-13.2c3.4,3.8,3.2,9.6,0.1,12.7C86.9,58,82.5,58.3,79.2,55.9"/>
	<path class="st0" d="M79.2,55.9l10.4-13.2c3.4,3.8,3.2,9.6,0.1,12.7C86.9,58,82.5,58.3,79.2,55.9z"/>
	<line class="st0" x1="66.9" y1="34.7" x2="60.3" y2="27.9"/>
	<path class="st1" d="M61.5,29.4l-0.9-16.7c-4.9,1.2-8.1,6-7.3,10.3C53.9,26.7,57.3,29.4,61.5,29.4"/>
	<path class="st0" d="M61.5,29.4l-0.9-16.7c-4.9,1.2-8.1,6-7.3,10.3C53.9,26.7,57.3,29.4,61.5,29.4z"/>
	<line class="st2" x1="58.3" y1="63.2" x2="63.6" y2="69.1"/>
	<line class="st0" x1="58.3" y1="63.2" x2="63.6" y2="69.1"/>
	<line class="st2" x1="76.3" y1="25.8" x2="83.7" y2="22.7"/>
	<line class="st0" x1="76.3" y1="25.8" x2="83.7" y2="22.7"/>
</g>
</svg>
