<?xml version="1.0" encoding="utf-8"?>
<!-- Generator: Adobe Illustrator 23.0.5, SVG Export Plug-In . SVG Version: 6.00 Build 0)  -->
<svg version="1.1" id="레이어_1" xmlns="http://www.w3.org/2000/svg" xmlns:xlink="http://www.w3.org/1999/xlink" x="0px"
	 y="0px" viewBox="0 0 100 100" style="enable-background:new 0 0 100 100;" xml:space="preserve">
<style type="text/css">
	.st0{fill:none;stroke:#333333;stroke-width:3;stroke-linecap:round;stroke-linejoin:round;stroke-miterlimit:10;}
	.st1{fill:#CAFFFF;stroke:#333333;stroke-width:3;stroke-linecap:round;stroke-linejoin:round;stroke-miterlimit:10;}
	.st2{fill:#FFFFFF;}
	.st3{fill:none;stroke:#333333;stroke-width:2;stroke-linecap:round;stroke-linejoin:round;stroke-miterlimit:10;}
</style>
<path class="st0" d="M72.2,66.7C72.2,66.7,72.2,66.7,72.2,66.7c3.6,1,6.4,3.8,7.7,7.2l2,5.6l2.5,8.5"/>
<path class="st0" d="M29.2,38.1L29.2,38.1c1.2-1.6,3.1-2.5,5.1-2.5H55c2.1,0,4.1,0.9,5.5,2.5c0.5,0.6,0.8,1.3,0.8,2.1v5
	c0,0.7-0.3,1.4-0.7,2l-1.3,1.6c-0.6,0.7-1.5,1.1-2.4,1.1h-7c-1,0-1.9-0.5-2.5-1.2c-1.2-1.6-3.6-1.7-4.9-0.1l-0.2,0.3
	c-0.6,0.7-1.5,1.1-2.4,1.1h-7.1c-0.9,0-1.8-0.4-2.4-1.1l-0.9-1.1c-0.5-0.6-0.7-1.3-0.7-2V40C28.6,39.3,28.8,38.7,29.2,38.1z"/>
<path class="st1" d="M32.9,38.3L32.9,38.3c0.9-1.4,2.4-2.3,3.9-2.3h16c1.6,0,3.2,0.8,4.3,2.2c0.4,0.5,0.6,1.2,0.6,1.8v4.4
	c0,0.6-0.2,1.3-0.6,1.8l-1,1.4c-0.5,0.6-1.2,1-1.9,1h-5.4c-0.8,0-1.5-0.4-1.9-1.1c-0.9-1.4-2.8-1.5-3.8-0.1L43,47.7
	c-0.5,0.6-1.1,1-1.9,1h-5.5c-0.7,0-1.4-0.4-1.9-1l-0.7-1c-0.4-0.5-0.6-1.1-0.6-1.8v-5C32.4,39.3,32.6,38.7,32.9,38.3z"/>
<path class="st0" d="M43.6,68.1c0.7,0.3,1.5,0.3,2.2,0.1l4.2-1.1c2.5-0.7,4.5-2.6,5.4-5l1.4-4c0.9-2.4,0.5-5.1-1-7.3"/>
<path class="st0" d="M39.6,67.2c-2.5-0.7-4.5-2.6-5.4-5l-1.4-4c-0.9-2.4-0.5-5.1,1-7.3"/>
<path class="st0" d="M37.9,53.3l-0.8,1.2c-0.6,0.8-0.6,1.9-0.2,2.8l1.9,3.8c0.5,1,1.5,1.6,2.6,1.6h6c1,0,2-0.6,2.5-1.5l1.7-3.1
	c0.5-0.8,0.5-1.9,0-2.7l-1.1-2"/>
<path class="st0" d="M42.8,55h3.2c0.7,0,1.2,0.7,1,1.3l-0.4,1.3c-0.1,0.4-0.5,0.8-1,0.8h-2.3c-0.4,0-0.8-0.3-1-0.7l-0.5-1.3
	C41.6,55.8,42.1,55,42.8,55z"/>
<path class="st0" d="M15.1,69.4c3.7-2.9,8-4.1,12.5-5.3c1-0.2,2-0.5,2.9-0.9c-0.1,0-0.6-1.1-0.7-1.2c-2.2-4-4.8-7.9-5.8-12.4
	c-1-4.6-0.4-9.5,1.7-13.7c0.9-1.8,2-3.6,3-5.3c1.1-1.9,2.2-3.7,3.3-5.6c2.2-3.7,5.2-6.7,9.5-7.9c3.5-1,7.3-0.6,10.5,1.2
	c2.4,1.3,4.3,3.2,5.6,5.6l5.8,10.5c1.7,3.2,2.6,6.7,2.6,10.3c0,2.2,0,4.3-0.4,6.5c-0.4,2.2-1.5,4.1-2.6,6c-1.2,2-2.5,4-3.7,6l9,2"/>
<line class="st2" x1="61.7" y1="88" x2="81.4" y2="23.4"/>
<polyline class="st3" points="61.7,88 81.4,23.4 86.1,17.4 87.8,20.2 "/>
<line class="st2" x1="84.4" y1="24.3" x2="65" y2="88"/>
<path class="st2" d="M78,31.2l-2.5,8.5c-0.3,0.9,0,1.9,0.5,2l2.5,0.7c0.6,0.2,1.3-0.5,1.6-1.4l2.5-8.5c0.3-0.9,0-1.9-0.5-2l-2.5-0.7
	C79,29.6,78.3,30.2,78,31.2"/>
<path class="st0" d="M78,31.2l-2.5,8.5c-0.3,0.9,0,1.9,0.5,2l2.5,0.7c0.6,0.2,1.3-0.5,1.6-1.4l2.5-8.5c0.3-0.9,0-1.9-0.5-2l-2.5-0.7
	C79,29.6,78.3,30.2,78,31.2z"/>
<polyline class="st3" points="86.1,17.4 88.2,13.9 91.2,18.7 87.8,20.2 84.4,24.3 65,88 "/>
<line class="st0" x1="89.5" y1="9.4" x2="89.5" y2="6"/>
<line class="st0" x1="93.7" y1="12.8" x2="95.4" y2="11.1"/>
<line class="st0" x1="95.4" y1="18.4" x2="98.1" y2="18.8"/>
</svg>
