<svg width="22" height="22" viewBox="0 0 22 22" fill="none" xmlns="http://www.w3.org/2000/svg">
<path d="M9.875 11C9.875 11.2984 9.99353 11.5845 10.2045 11.7955C10.4155 12.0065 10.7016 12.125 11 12.125C11.2984 12.125 11.5845 12.0065 11.7955 11.7955C12.0065 11.5845 12.125 11.2984 12.125 11C12.125 10.7016 12.0065 10.4155 11.7955 10.2045C11.5845 9.99353 11.2984 9.875 11 9.875C10.7016 9.875 10.4155 9.99353 10.2045 10.2045C9.99353 10.4155 9.875 10.7016 9.875 11V11ZM14.5625 11C14.5625 11.2984 14.681 11.5845 14.892 11.7955C15.103 12.0065 15.3891 12.125 15.6875 12.125C15.9859 12.125 16.272 12.0065 16.483 11.7955C16.694 11.5845 16.8125 11.2984 16.8125 11C16.8125 10.7016 16.694 10.4155 16.483 10.2045C16.272 9.99353 15.9859 9.875 15.6875 9.875C15.3891 9.875 15.103 9.99353 14.892 10.2045C14.681 10.4155 14.5625 10.7016 14.5625 11ZM5.1875 11C5.1875 11.2984 5.30603 11.5845 5.517 11.7955C5.72798 12.0065 6.01413 12.125 6.3125 12.125C6.61087 12.125 6.89702 12.0065 7.10799 11.7955C7.31897 11.5845 7.4375 11.2984 7.4375 11C7.4375 10.7016 7.31897 10.4155 7.10799 10.2045C6.89702 9.99353 6.61087 9.875 6.3125 9.875C6.01413 9.875 5.72798 9.99353 5.517 10.2045C5.30603 10.4155 5.1875 10.7016 5.1875 11V11ZM20.6844 6.93125C20.1547 5.67266 19.3953 4.54297 18.4273 3.57266C17.4661 2.60796 16.3251 1.84114 15.0687 1.31563C13.7797 0.774219 12.4109 0.5 11 0.5H10.9531C9.53281 0.507031 8.15703 0.788281 6.86328 1.34141C5.61771 1.87232 4.48734 2.64049 3.53516 3.60312C2.57656 4.57109 1.82422 5.69609 1.30391 6.95C0.764843 8.24844 0.492968 9.62891 0.499999 11.0492C0.507952 12.6769 0.893027 14.2806 1.625 15.7344V19.2969C1.625 19.5828 1.73859 19.857 1.94078 20.0592C2.14296 20.2614 2.41719 20.375 2.70312 20.375H6.26797C7.72178 21.107 9.32546 21.492 10.9531 21.5H11.0023C12.4062 21.5 13.768 21.2281 15.05 20.6961C16.3 20.1768 17.4368 19.419 18.3969 18.4648C19.3648 17.5062 20.1266 16.3859 20.6586 15.1367C21.2117 13.843 21.493 12.4672 21.5 11.0469C21.507 9.61953 21.2305 8.23437 20.6844 6.93125V6.93125ZM17.143 17.1969C15.5 18.8234 13.3203 19.7188 11 19.7188H10.9602C9.54687 19.7117 8.14297 19.3602 6.90312 18.6992L6.70625 18.5938H3.40625V15.2938L3.30078 15.0969C2.63984 13.857 2.28828 12.4531 2.28125 11.0398C2.27187 8.70313 3.16484 6.50937 4.80312 4.85703C6.43906 3.20469 8.62578 2.29063 10.9625 2.28125H11.0023C12.1742 2.28125 13.3109 2.50859 14.382 2.95859C15.4273 3.39687 16.3648 4.02734 17.1711 4.83359C17.975 5.6375 18.6078 6.57734 19.0461 7.62266C19.5008 8.70547 19.7281 9.85391 19.7234 11.0398C19.7094 13.3742 18.793 15.5609 17.143 17.1969V17.1969Z" fill="current"/>
</svg>
