<svg width="18" height="20" viewBox="0 0 18 20" fill="none" xmlns="http://www.w3.org/2000/svg">
<path d="M4 15.5556H11V13.3333H4V15.5556ZM4 11.1111H14V8.88889H4V11.1111ZM4 6.66667H14V4.44444H4V6.66667ZM2 20C1.45 20 0.979 19.7826 0.587 19.3478C0.195667 18.9122 0 18.3889 0 17.7778V2.22222C0 1.61111 0.195667 1.08778 0.587 0.652222C0.979 0.217407 1.45 0 2 0H16C16.55 0 17.021 0.217407 17.413 0.652222C17.8043 1.08778 18 1.61111 18 2.22222V17.7778C18 18.3889 17.8043 18.9122 17.413 19.3478C17.021 19.7826 16.55 20 16 20H2ZM2 17.7778H16V2.22222H2V17.7778ZM2 2.22222V17.7778V2.22222Z" fill="#787878"/>
</svg>
