<?xml version="1.0" encoding="UTF-8"?><svg id="_이어_1" xmlns="http://www.w3.org/2000/svg" viewBox="0 0 62.52 85.28"><defs><style>.cls-1{fill:none;}.cls-1,.cls-2{stroke:#333;stroke-linecap:round;stroke-linejoin:round;stroke-width:3px;}.cls-3{fill:#e1ffca;}.cls-2{fill:#dbc7b6;}</style></defs><path class="cls-3" d="M48.48,56.42s14.56-7.46,11.78-20.73l-13.78,2.73-8.44-11.43-8.14,13.05-13.19-4.01,.62,9.16,7.93,11.23h23.22Z"/><g><path class="cls-1" d="M38.46,26.99c13.65,14.16,5.99,26.04,2.12,30.45"/><path class="cls-2" d="M17.55,57.44l41.52,.09-1.35,3.63c-1.03,2.75-1.64,5.66-1.81,8.62l-.58,9.75c-.14,2.39-2.03,4.26-4.3,4.25l-24.5-.07c-2.25,0-4.12-1.84-4.28-4.21l-.58-8.55c-.25-3.72-1.2-7.35-2.78-10.68l-1.34-2.83Z"/><path class="cls-1" d="M37.67,27.59s-14.38,13.9-1.76,29.46"/><path class="cls-1" d="M61.01,35.42s.57,16.32-12.45,22.08"/><path class="cls-1" d="M46.24,39.52c3.3-2.43,8.02-4.2,14.73-4.53"/><path class="cls-1" d="M15.77,36.46s-.45,15.35,12.79,21.04"/><path class="cls-1" d="M30.47,40.49c-3.33-2.72-7.43-4.11-14.65-4.46"/></g><path class="cls-1" d="M30.21,1.5l.99,5.4c.35,1.88,1.36,3.54,2.82,4.62l1.26,.93-1.73,1.57c-1.18,1.08-2.05,2.5-2.49,4.11l-1.62,5.87-1.71-6.2c-.38-1.38-1.16-2.6-2.22-3.47l-1.93-1.58,2.22-1.81c.88-.72,1.57-1.7,1.98-2.81l2.44-6.63Z"/><path class="cls-1" d="M6.66,11.44l.77,4.2c.27,1.46,1.06,2.76,2.2,3.6l.98,.72-1.34,1.22c-.92,.84-1.59,1.95-1.94,3.2l-1.26,4.57-1.33-4.83c-.3-1.08-.9-2.02-1.73-2.7l-1.5-1.23,1.72-1.41c.69-.56,1.22-1.32,1.54-2.19l1.9-5.15Z"/></svg>