<?xml version="1.0" encoding="UTF-8"?><svg id="_이어_1" xmlns="http://www.w3.org/2000/svg" viewBox="0 0 76.52 84.51"><defs><style>.cls-1{stroke:#333;stroke-linecap:round;stroke-linejoin:round;stroke-width:3px;}.cls-1,.cls-2{fill:none;}.cls-3{fill:#e6f3ff;}.cls-4{fill:#f2ebff;}</style></defs><path class="cls-3" d="M45.07,11.51S61.07,1.51,61.07,2.51v15.28l7,19.22s7,14.5,6,20.5-8,15-11,15-10,2-14,1-4-4-4-4v-8.61l3-9.39-6.06-.63,1.06-3.37,4-10.8,2-12.2-4-13Z"/><polygon class="cls-4" points="3.57 26.51 20.4 26.51 20.4 49.38 9.9 49.98 11.99 61.53 12.02 67.12 4.7 66.95 2.57 63.51 3.57 26.51"/><polygon class="cls-2" points="11.07 52.01 47.63 52.01 44.07 80.01 41.93 82.24 17.85 82.24 15.07 80.01 11.07 52.01"/><g><path class="cls-1" d="M8.9,50.88l38.67,.11-1.26,4.43c-.96,3.36-1.52,6.91-1.69,10.51l-.54,11.9c-.13,2.92-1.89,5.19-4.01,5.19l-22.82-.08c-2.1,0-3.83-2.25-3.98-5.13l-.54-10.44c-.23-4.54-1.11-8.96-2.59-13.03l-1.25-3.45Z"/><path class="cls-1" d="M44.35,72.17c.61,.3,1.23,.57,1.82,.82,3.58,1.45,7.49,1.94,11.31,1.33,4.88-.77,11.68-3.06,15.53-9.62,6.47-11.03-4.35-28.1-8.58-37.37-4.23-9.28-1.59-25.83-1.59-25.83l-18.9,9.65c10.32,13.67,.11,34.25-3,39.82"/><path class="cls-1" d="M12.39,67.8H5.47c-2.19,0-3.97-1.46-3.97-3.27V25.5H20.53v25.23"/></g></svg>