<?xml version="1.0" encoding="UTF-8"?><svg id="_이어_1" xmlns="http://www.w3.org/2000/svg" viewBox="0 0 82.85 81.21"><defs><style>.cls-1{fill:none;}.cls-1,.cls-2,.cls-3{stroke:#333;stroke-linecap:round;stroke-linejoin:round;stroke-width:3px;}.cls-2{fill:#f2d9ff;}.cls-3{fill:#e6f3ff;}</style></defs><path class="cls-1" d="M6.21,47.66H43.66v26c0,2.71-2.2,4.91-4.91,4.91H11.12c-2.71,0-4.91-2.2-4.91-4.91v-26Z"/><rect class="cls-1" x="15.76" y="53.23" width="18.88" height="5.88"/><polyline class="cls-1" points="70.68 21.15 70.68 15.83 61.13 15.83 60.83 21"/><path class="cls-1" d="M70.68,15.83c0-6.37,6.41-7.21,6.41-7.21V1.5H42.03V6.85c19.1-.22,19.1,8.98,19.1,8.98"/><path class="cls-1" d="M42.03,16.58s13.91,.35,13.72-7.36"/><line class="cls-1" x1="46.2" y1="1.5" x2="46.2" y2="6.96"/><path class="cls-2" d="M19.59,42.32l-7.3-9.7c-.7-.93-1.6-1.7-2.67-2.14-1.52-.63-3.7-.83-5.89,1.36-3.97,3.99-1.74,8.28-.3,10.19s9.33,5.78,11.51,4.71c0,0,2.18-1.07,.11-2.5-2.07-1.43-5.74-3.65-5.74-3.65,0,0-3.19-1.59-2.87-3.82,.6-4.24,3.98,0,3.98,0l5.9,8.2,.74,.85c.71,.81,1.93,.94,2.79,.29h0c.91-.68,1.09-1.98,.41-2.89l-.67-.9Z"/><path class="cls-2" d="M20.44,41.21l-7.3-9.7c-.7-.93-1.19-2.01-1.32-3.16-.18-1.63,.23-3.79,2.94-5.28,4.93-2.71,8.44,.62,9.87,2.53s2.97,10.57,1.34,12.37c0,0-1.63,1.8-2.43-.59s-1.92-6.52-1.92-6.52c0,0-.64-3.5-2.87-3.82-4.24-.6-1.11,3.82-1.11,3.82l6.25,7.94,.61,.94c.59,.91,.37,2.11-.49,2.76h0c-.91,.68-2.2,.5-2.89-.41l-.67-.9Z"/><path class="cls-1" d="M20.48,47.27c-.44-1.19-.07-2.57,.99-3.37h0c1.3-.98,3.14-.72,4.12,.58l.27,.35"/><line class="cls-1" x1="22.92" y1="53.23" x2="20.68" y2="58.23"/><line class="cls-1" x1="30.88" y1="54.03" x2="28.99" y2="58.58"/><path class="cls-1" d="M42.42,45.83c-.33-.74-.93-1.36-1.73-1.7l-6.35-2.7-2.41-1.03c-1.69-.72-3.65,.07-4.37,1.76l-1.72,4.03"/><path class="cls-3" d="M60.83,22l-10.58,52.01c-.69,2.91,1.52,5.69,4.51,5.69h21.86c3.03,.08,5.31-2.73,4.61-5.68l-10.54-51.87-9.86-.15Z"/><polyline class="cls-1" points="34.35 41.43 36.8 35.68 41.1 37.52 38.65 43.27"/><path class="cls-1" d="M42.45,36.9l.41-.97c.12-.27,.17-.57,.15-.86l-.03-.5c-.04-.6,.21-1.18,.67-1.57l.38-.33c.23-.19,.4-.43,.52-.7l1.32-3.09c.12-.27,.17-.57,.15-.86l-.03-.5c-.04-.6,.21-1.18,.67-1.57l.38-.33c.23-.19,.4-.43,.52-.7l.41-.97c.41-.97-.04-2.09-1-2.5l-2.77-1.18c-.97-.41-2.09,.04-2.5,1l-.41,.97c-.12,.27-.17,.57-.15,.86l.03,.5c.04,.6-.21,1.18-.67,1.57l-.38,.33c-.23,.19-.4,.43-.52,.7l-1.32,3.09c-.12,.27-.17,.57-.15,.86l.03,.5c.04,.6-.21,1.18-.67,1.57l-.38,.33c-.23,.19-.4,.43-.52,.7l-.41,.97c-.41,.97,.04,2.09,1,2.5l2.77,1.18c.97,.41,2.09-.04,2.5-1Z"/><line class="cls-1" x1="72.27" y1="55.62" x2="73.99" y2="67.09"/></svg>