<?xml version="1.0" encoding="UTF-8"?><svg id="_이어_1" xmlns="http://www.w3.org/2000/svg" viewBox="0 0 60.89 85"><defs><style>.cls-1{fill:none;}.cls-1,.cls-2{stroke:#333;stroke-linecap:round;stroke-linejoin:round;stroke-width:3px;}.cls-3{fill:#e1ffca;}.cls-2{fill:#dbc7b6;}</style></defs><g><path class="cls-3" d="M16.25,54.39C2.49,47.12,2.09,31.56,2.09,31.56l9.03,.6,3.28-9.33,7.73,5.98s.28,6.43,.07,4.25,7.25-11.17,7.25-11.17c0,0,4.26,8.22,5.71,6.92s8.82-3.84,9.57-3.38,0,7.63,0,7.63l-11.89,9.92s20.38-18.01,22.92-11.42c2.54,6.59-13.29,22.5-13.29,22.5l-14.58,.34s-5.48-.67-12.27-.34S2.91,33.18,2.4,33.05"/><path class="cls-2" d="M5.92,54.51l45.69,.1-1.49,4c-.72,1.94-1.26,3.94-1.6,5.29-.27,1.04-.43,2.11-.49,3.18l-.53,9.06c-.16,5.32-2.23,7.37-4.73,7.37l-26.96-.07c-2.48,0-4.53-2.03-4.71-4.63l-.64-9.41c-.28-4.09-1.32-8.09-3.06-11.76l-1.48-3.11Z"/><path class="cls-1" d="M29.03,20.96s-7.48,7.6-7.61,18.7"/><path class="cls-1" d="M29.46,20.97s6.54,7.54,6.78,18.11"/><path class="cls-1" d="M2.4,31.25s21.52,1.15,25.98,22.8"/><path class="cls-1" d="M55.8,31.07s-.4,15.63-14.25,22.89c-.36,.19-.74,.37-1.12,.55"/><path class="cls-1" d="M55.49,30.77s-10.77,.58-18.65,8.58c-3.4,3.45-6.26,8.28-7.49,15.05"/><path class="cls-1" d="M13.33,23.29s-1.64,4.46-1.35,10.42"/><path class="cls-1" d="M13.56,22.39s5.02,2.3,9.48,7.4"/><path class="cls-1" d="M44.2,24.55s1.07,3.28,1.08,8.5"/><path class="cls-1" d="M43.97,23.65s-4.53,2.08-8.81,6.66"/><path class="cls-1" d="M1.5,31.13s.4,15.63,14.25,22.89c.36,.19,.74,.37,1.12,.55"/></g><path class="cls-1" d="M36.53,1.5l-.89,4.83c-.31,1.69-1.22,3.17-2.53,4.14l-1.13,.83,1.55,1.41c1.06,.96,1.84,2.24,2.23,3.68l1.45,5.26,1.54-5.56c.34-1.24,1.04-2.33,1.99-3.11l1.73-1.41-1.98-1.62c-.79-.65-1.41-1.52-1.78-2.52l-2.19-5.94Z"/><path class="cls-1" d="M54.77,10.4l-.69,3.76c-.24,1.31-.95,2.47-1.97,3.22l-.88,.65,1.2,1.09c.82,.75,1.43,1.75,1.74,2.86l1.13,4.09,1.19-4.32c.27-.96,.81-1.81,1.55-2.42l1.35-1.1-1.54-1.26c-.62-.5-1.09-1.18-1.38-1.96l-1.7-4.62Z"/></svg>