<?xml version="1.0" encoding="UTF-8"?><svg id="_이어_1" xmlns="http://www.w3.org/2000/svg" viewBox="0 0 70.86 85.14"><defs><style>.cls-1{fill:none;}.cls-1,.cls-2,.cls-3,.cls-4{stroke:#333;stroke-linecap:round;stroke-linejoin:round;stroke-width:3px;}.cls-5,.cls-3{fill:#e1ffca;}.cls-2{fill:#fff;}.cls-6{fill:#f2d9ff;}.cls-4{fill:#dbc7b6;}</style></defs><polygon class="cls-6" points="21.63 21.59 23.03 20.36 33.47 36.82 31.36 37.33 21.63 21.59"/><polygon class="cls-6" points="65.55 24.56 51.38 2.48 49.36 4.33 63.36 25.33 65.55 24.56"/><path class="cls-5" d="M34.28,27.66c.08-1.33,3.08-8.33,3.08-8.33l5.94-1.76,4.63,.96-.91,7.78-4.11,3.34-8.64-1.98Z"/><path class="cls-4" d="M69.36,63.01c-2.64,2.48-2.44,10.61-2.57,13.04l-.3,4.8c-.08,1.55-1.04,2.74-2.2,2.75l-12.59,.04c-1.17,0-2.14-1.21-2.21-2.77l-.3-5.58c-.05-1.12,.01-1.82-.02-2.55-.07-1.25,.25-3.24-.54-4.2-.91-1.1-4.01-2.25-4.01,2.37,0,2.32-.07,3.51-.2,5.94l-.3,4.01c-.08,1.55-1.04,2.74-2.2,2.75l-3.07,.02-3.7-.04-6.23-.02c-1.16,0-2.11-1.2-2.2-2.75l-.3-4.01c-.13-2.43-.2-3.61-.2-5.94,0-4.62-3.1-3.48-4.01-2.37-.8,.96-.48,2.95-.54,4.2-.04,.74,.03,1.43-.02,2.55l-.3,5.58c-.07,1.56-1.04,2.78-2.21,2.77l-12.59-.04c-1.16,0-2.11-1.2-2.2-2.75l-.3-4.8c-.13-2.43,.07-10.56-2.57-13.04l67.86,.04Z"/><path class="cls-3" d="M12.03,52.82l-8.46-7.27c-1.86,2.76-1.1,6.42,1.36,8.06,2.09,1.39,5.09,1.12,7.1-.79Z"/><line class="cls-2" x1="12.03" y1="61.9" x2="12.03" y2="52.82"/><path class="cls-3" d="M12.14,53.03l8.46-7.27c1.86,2.76,1.1,6.42-1.36,8.06-2.09,1.39-5.09,1.12-7.1-.79Z"/><path class="cls-3" d="M57.43,53.41l-8.46-7.27c-1.86,2.76-1.1,6.42,1.36,8.06,2.09,1.39,5.09,1.12,7.1-.79Z"/><line class="cls-2" x1="57.43" y1="62.49" x2="57.43" y2="53.41"/><path class="cls-3" d="M57.54,53.62l8.46-7.27c1.86,2.76,1.1,6.42-1.36,8.06-2.09,1.39-5.09,1.12-7.1-.79Z"/><path class="cls-1" d="M43.83,39.22l22.45-14.19L51.42,1.5,20.33,22.14l10.58,16.75s10.11-2.56,12.92,.33Z"/><line class="cls-1" x1="62.79" y1="26.31" x2="48.86" y2="3.83"/><line class="cls-2" x1="34.28" y1="36.82" x2="23.86" y2="20.83"/><path class="cls-1" d="M34.58,28.19s12.91,6.71,13.77-8.7"/><path class="cls-1" d="M39.48,25.09l8.87-5.6c-14.29-5.84-13.77,8.7-13.77,8.7"/><line class="cls-2" x1="51.38" y1="17.57" x2="48.35" y2="19.49"/><path class="cls-4" d="M35.86,45.09l-.36,.79c-.36,.79-1.5,3.2-2.68,3.96-.02,.01-.04,.03-.06,.04-.32,.23-.7,.34-1.1,.35h-.01c-.56,.02-.78,0-1.17-.39-.18-.18-.39-.79-.39-1.56s.35-1.27,.78-1.56c1.38-.93,4.83-1.71,4.99-1.64Z"/><path class="cls-4" d="M39.37,51.19l.15,.86c.15,.86,.58,3.49,.04,4.79,0,.02-.02,.04-.03,.06-.14,.37-.39,.68-.71,.91h0c-.45,.34-.64,.45-1.18,.35-.25-.05-.77-.43-1.2-1.06s-.43-1.24-.24-1.72c.61-1.54,3.01-4.15,3.18-4.18Z"/><line class="cls-2" x1="62.29" y1="70.75" x2="62.29" y2="76.01"/><line class="cls-2" x1="16.88" y1="70.75" x2="16.88" y2="76.01"/><line class="cls-2" x1="39.82" y1="70.75" x2="39.82" y2="76.71"/></svg>