<?xml version="1.0" encoding="UTF-8"?><svg id="_이어_1" xmlns="http://www.w3.org/2000/svg" viewBox="0 0 80.21 81.53"><defs><style>.cls-1{fill:none;}.cls-1,.cls-2,.cls-3,.cls-4{stroke:#333;stroke-linecap:round;stroke-linejoin:round;stroke-width:3px;}.cls-2{fill:#fff;}.cls-3{fill:#e6f3ff;}.cls-5{fill:#f2d9ff;}.cls-4,.cls-6{fill:#dbc7b6;}</style></defs><polygon class="cls-6" points="56.06 47.23 54.06 51.23 67.59 50.96 66.06 47.23 56.06 47.23"/><path class="cls-4" d="M10.34,68.27l-3.02,10.73c-.18,.58-.71,.99-1.33,.99l-3.08,.03c-.95,0-1.63-.9-1.35-1.81l2.77-9.89"/><path class="cls-4" d="M45.76,67.87l-3.02,10.73c-.18,.58-.71,.99-1.33,.99l-3.08,.03c-.95,0-1.63-.9-1.35-1.81l2.77-9.89"/><path class="cls-4" d="M61.06,26.65l11.84,39.42c.18,.58,.71,.99,1.33,.99l3.08,.03c.95,0,1.63-.9,1.35-1.81l-14.37-47.78"/><polygon class="cls-4" points="22.17 1.5 68.71 1.5 48.52 67.85 1.99 67.85 22.17 1.5"/><line class="cls-4" x1="66.47" y1="46.76" x2="54.94" y2="46.76"/><line class="cls-4" x1="67.59" y1="51.73" x2="53.77" y2="51.73"/><line class="cls-1" x1="70.87" y1="59.4" x2="76.86" y2="59.4"/><path class="cls-1" d="M10.34,68.27l-3.02,10.73c-.18,.58-.71,.99-1.33,.99l-3.08,.03c-.95,0-1.63-.9-1.35-1.81l2.77-9.89"/><polygon class="cls-2" points="25.78 6.73 60.86 6.73 43.64 61.74 8.57 61.74 25.78 6.73"/><path class="cls-4" d="M23.64,48.44l1.84-6.06c.22-.71,.32-1.45,.32-2.19v-1.74h16.11l-1.28,1.7c-.58,.77-1.01,1.64-1.26,2.58l-1.93,7.13c-.3,1.11-1.31,1.88-2.46,1.88h-8.9c-1.71,0-2.94-1.65-2.44-3.29Z"/><line class="cls-1" x1="31.2" y1="38.44" x2="31.14" y2="32.9"/><line class="cls-1" x1="36.19" y1="37.95" x2="40.12" y2="29.26"/><polygon class="cls-3" points="25.53 32.9 25.53 27.29 33.95 26.17 33.95 31.78 25.53 32.9"/><path class="cls-5" d="M40.69,27.73c-.13,0-2.54-4.11-2.54-4.11l1.27-4.44h2.5l1.64,2.56,2.2-.78,2.8,1.78-1.44,3.44-5.2,1.56h-1.23Z"/><path class="cls-1" d="M43.74,21.21c-.05-.91-.35-2.15-1.54-2.95-1.87-1.26-3.7,.13-4.18,1.66s-1.06,5.26,2.42,8.53"/><path class="cls-1" d="M43.8,21.29c.7-.52,1.78-1.02,3.14-.68,2.24,.56,2.51,2.78,1.74,4.12s-3.09,4.15-7.94,3.71"/></svg>