<?xml version="1.0" encoding="UTF-8"?><svg id="_이어_1" xmlns="http://www.w3.org/2000/svg" viewBox="0 0 65.62 80"><defs><style>.cls-1{fill:none;}.cls-1,.cls-2,.cls-3,.cls-4{stroke:#333;stroke-linecap:round;stroke-linejoin:round;stroke-width:3px;}.cls-2{fill:#f2d9ff;}.cls-3{fill:#fff;}.cls-4{fill:#e1ffca;}</style></defs><path class="cls-1" d="M62.23,70.11c1.33-.87-6.38,4.26,0,8.39"/><line class="cls-1" x1="7.51" y1="68.3" x2="7.51" y2="9.34"/><polyline class="cls-2" points="57.04 2.97 57.04 17.34 52.51 13.5 48.56 17.34 48.56 1.5"/><path class="cls-4" d="M35.51,19.15s-22.42,13.08,0,29.07"/><path class="cls-4" d="M35.51,29.5v18.72c22.42-15.99,0-29.07,0-29.07"/><line class="cls-3" x1="35.52" y1="56.33" x2="35.52" y2="49.07"/><path class="cls-1" d="M9.51,1.5S1.51,1.07,1.51,9.79V73.81s-.61,4.69,8.69,4.69"/><path class="cls-1" d="M62.51,78.5H7.2c-2.59,0-4.69-2.1-4.69-4.69h0c0-2.59,2.1-4.69,4.69-4.69h56.92V1.5H7.51"/></svg>