<?xml version="1.0" encoding="UTF-8"?><svg id="_이어_1" xmlns="http://www.w3.org/2000/svg" viewBox="0 0 42 80.5"><defs><style>.cls-1{fill:none;}.cls-1,.cls-2{stroke:#333;stroke-linecap:round;stroke-linejoin:round;stroke-width:3px;}.cls-3{fill:#e1ffca;}.cls-2{fill:#dbc7b6;}</style></defs><path class="cls-3" d="M2.78,40.69l2,8s5,5,7.5,5,8.06,.31,8.06,.31l12.11-1.38,5.61-5.58,1.33-7.04-6.61-.96-7,2.65-4,3-1.11,2.85-2.89-4.85-5.67-2.69-8.76-.34-.58,1.04Z"/><g><path class="cls-2" d="M1.5,55.08l39,.08-1.27,3.3c-.96,2.5-1.54,5.14-1.7,7.82l-.54,8.86c-.13,2.17-1.9,3.87-4.04,3.86l-23.02-.06c-2.11,0-3.87-1.67-4.02-3.82l-.54-7.77c-.24-3.38-1.12-6.67-2.61-9.7l-1.26-2.57Z"/><path class="cls-1" d="M21,53.5c-.09-3.12,.75-18.97,19-14"/><path class="cls-1" d="M40,39.5c-.23,8.09-4,16-18,15"/><path class="cls-1" d="M20.98,54c.09-3.12-.75-18.97-19-14"/><path class="cls-1" d="M1.98,40c.23,8.09,4,16,18,15"/></g><path class="cls-1" d="M9.01,1.5l-.99,5.4c-.35,1.88-1.36,3.54-2.82,4.62l-1.26,.93,1.73,1.57c1.18,1.08,2.05,2.5,2.49,4.11l1.62,5.87,1.71-6.2c.38-1.38,1.16-2.6,2.22-3.47l1.93-1.58-2.22-1.81c-.88-.72-1.57-1.7-1.98-2.81L9.01,1.5Z"/><path class="cls-1" d="M32.56,11.44l-.77,4.2c-.27,1.46-1.06,2.76-2.2,3.6l-.98,.72,1.34,1.22c.92,.84,1.59,1.95,1.94,3.2l1.26,4.57,1.33-4.83c.3-1.08,.9-2.02,1.73-2.7l1.5-1.23-1.72-1.41c-.69-.56-1.22-1.32-1.54-2.19l-1.9-5.15Z"/></svg>