<svg width="36" height="36" viewBox="0 0 36 36" fill="none" xmlns="http://www.w3.org/2000/svg">
<path d="M27 15C27 14.6022 26.842 14.2207 26.5607 13.9394C26.2794 13.6581 25.8978 13.5 25.5 13.5H8.115L11.565 10.065C11.8475 9.78258 12.0061 9.39949 12.0061 9.00003C12.0061 8.60058 11.8475 8.21749 11.565 7.93503C11.2825 7.65258 10.8994 7.4939 10.5 7.4939C10.1005 7.4939 9.71745 7.65258 9.435 7.93503L3.435 13.935C3.22686 14.146 3.08586 14.4138 3.0298 14.7048C2.97374 14.9958 3.00513 15.2969 3.12 15.57C3.23253 15.844 3.42362 16.0785 3.6692 16.244C3.91478 16.4095 4.20386 16.4986 4.5 16.5H25.5C25.8978 16.5 26.2794 16.342 26.5607 16.0607C26.842 15.7794 27 15.3979 27 15ZM32.88 20.43C32.7675 20.1561 32.5764 19.9216 32.3308 19.7561C32.0852 19.5906 31.7961 19.5015 31.5 19.5H10.5C10.1022 19.5 9.72064 19.6581 9.43934 19.9394C9.15803 20.2207 9 20.6022 9 21C9 21.3979 9.15803 21.7794 9.43934 22.0607C9.72064 22.342 10.1022 22.5 10.5 22.5H27.885L24.435 25.935C24.2944 26.0745 24.1828 26.2404 24.1067 26.4232C24.0305 26.606 23.9913 26.802 23.9913 27C23.9913 27.1981 24.0305 27.3941 24.1067 27.5769C24.1828 27.7597 24.2944 27.9256 24.435 28.065C24.5744 28.2056 24.7403 28.3172 24.9231 28.3934C25.1059 28.4695 25.302 28.5087 25.5 28.5087C25.698 28.5087 25.8941 28.4695 26.0769 28.3934C26.2596 28.3172 26.4255 28.2056 26.565 28.065L32.565 22.065C32.7731 21.8541 32.9141 21.5862 32.9702 21.2953C33.0262 21.0043 32.9949 20.7032 32.88 20.43Z" fill="current"/>
</svg>
