<svg width="20" height="21" viewBox="0 0 20 21" fill="none" xmlns="http://www.w3.org/2000/svg">
<path fill-rule="evenodd" clip-rule="evenodd" d="M10.0005 0.76001C9.23152 0.76001 8.49191 1.0553 7.93438 1.58489L7.93425 1.58501L1.55638 7.64189L1.55625 7.64201C1.06457 8.10911 0.673045 8.67136 0.405505 9.29454C0.137965 9.91773 0 10.5888 0 11.267V18C0 18.7957 0.31607 19.5587 0.87868 20.1213C1.44129 20.6839 2.20435 21 3 21H17C17.7957 21 18.5587 20.6839 19.1213 20.1213C19.6839 19.5587 20 18.7957 20 18V11.267C20 10.5888 19.862 9.91773 19.5945 9.29454C19.327 8.67136 18.9354 8.10911 18.4437 7.64201L18.4437 7.64195L12.0668 1.58501C11.5092 1.05534 10.7695 0.76001 10.0005 0.76001ZM9.31175 3.03501C9.4976 2.85845 9.74415 2.76001 10.0005 2.76001C10.2568 2.76001 10.5034 2.85845 10.6892 3.03501L10.6893 3.03508L17.0662 9.09201L17.0663 9.09208C17.3613 9.37232 17.5962 9.70965 17.7567 10.0835C17.9172 10.4574 18 10.8601 18 11.267V18C18 18.2652 17.8946 18.5196 17.7071 18.7071C17.5196 18.8947 17.2652 19 17 19H14V14C14 13.2043 13.6839 12.4413 13.1213 11.8787C12.5587 11.3161 11.7957 11 11 11H9C8.20435 11 7.44129 11.3161 6.87868 11.8787C6.31607 12.4413 6 13.2043 6 14V19H3C2.73478 19 2.48043 18.8947 2.29289 18.7071C2.10536 18.5196 2 18.2652 2 18V11.267C2 10.8601 2.08278 10.4574 2.2433 10.0835C2.4038 9.70967 2.63867 9.37237 2.93362 9.09213L2.93375 9.09201L9.31162 3.03513L9.31175 3.03501ZM8.29289 13.2929C8.48043 13.1054 8.73478 13 9 13H11C11.2652 13 11.5196 13.1054 11.7071 13.2929C11.8946 13.4804 12 13.7348 12 14V19H8V14C8 13.7348 8.10536 13.4804 8.29289 13.2929Z" fill="current"/>
</svg>
