<svg width="16" height="20" viewBox="0 0 16 20" fill="none" xmlns="http://www.w3.org/2000/svg">
<path d="M8.74228e-07 10C8.51042e-07 10.2652 0.105357 10.5196 0.292893 10.7071C0.48043 10.8946 0.734784 11 1 11L8.59 11L6.29 13.29C6.19676 13.3832 6.1228 13.4939 6.07234 13.6157C6.02188 13.7376 5.99591 13.8681 5.99591 14C5.99591 14.1319 6.02188 14.2624 6.07234 14.3842C6.1228 14.5061 6.19676 14.6168 6.29 14.71C6.38324 14.8032 6.49393 14.8772 6.61575 14.9277C6.73757 14.9781 6.86814 15.0041 7 15.0041C7.13186 15.0041 7.26243 14.9781 7.38425 14.9277C7.50607 14.8772 7.61676 14.8032 7.71 14.71L11.71 10.71C11.801 10.6149 11.8724 10.5028 11.92 10.38C12.02 10.1365 12.02 9.86346 11.92 9.62C11.8724 9.49725 11.801 9.3851 11.71 9.29L7.71 5.29C7.61704 5.19627 7.50644 5.12188 7.38458 5.07111C7.26272 5.02034 7.13201 4.9942 7 4.9942C6.86799 4.9942 6.73728 5.02034 6.61542 5.07111C6.49357 5.12188 6.38296 5.19627 6.29 5.29C6.19627 5.38296 6.12188 5.49356 6.07111 5.61542C6.02034 5.73728 5.9942 5.86799 5.9942 6C5.9942 6.13201 6.02034 6.26272 6.07111 6.38458C6.12188 6.50644 6.19627 6.61704 6.29 6.71L8.59 9L1 9C0.734784 9 0.48043 9.10536 0.292893 9.29289C0.105357 9.48043 8.97414e-07 9.73478 8.74228e-07 10ZM3 20L13 20C13.7956 20 14.5587 19.6839 15.1213 19.1213C15.6839 18.5587 16 17.7956 16 17L16 3C16 2.20435 15.6839 1.44129 15.1213 0.878679C14.5587 0.31607 13.7957 -1.9271e-07 13 -2.62268e-07L3 -1.1365e-06C2.20435 -1.20605e-06 1.44129 0.316069 0.878681 0.878678C0.316072 1.44129 1.55575e-06 2.20435 1.48619e-06 3L1.22392e-06 6C1.20073e-06 6.26522 0.105357 6.51957 0.292894 6.70711C0.48043 6.89464 0.734785 7 1 7C1.26522 7 1.51957 6.89464 1.70711 6.70711C1.89465 6.51957 2 6.26522 2 6L2 3C2 2.73478 2.10536 2.48043 2.29289 2.29289C2.48043 2.10535 2.73479 2 3 2L13 2C13.2652 2 13.5196 2.10536 13.7071 2.29289C13.8946 2.48043 14 2.73478 14 3L14 17C14 17.2652 13.8946 17.5196 13.7071 17.7071C13.5196 17.8946 13.2652 18 13 18L3 18C2.73478 18 2.48043 17.8946 2.29289 17.7071C2.10536 17.5196 2 17.2652 2 17L2 14C2 13.7348 1.89464 13.4804 1.70711 13.2929C1.51957 13.1054 1.26522 13 1 13C0.734784 13 0.480429 13.1054 0.292893 13.2929C0.105357 13.4804 5.47723e-07 13.7348 5.24537e-07 14L2.62268e-07 17C1.9271e-07 17.7956 0.31607 18.5587 0.878679 19.1213C1.44129 19.6839 2.20435 20 3 20Z" fill="current"/>
</svg>
