<?xml version="1.0" encoding="utf-8"?>
<!-- Generator: Adobe Illustrator 23.0.5, SVG Export Plug-In . SVG Version: 6.00 Build 0)  -->
<svg version="1.1" id="레이어_1" xmlns="http://www.w3.org/2000/svg" xmlns:xlink="http://www.w3.org/1999/xlink" x="0px"
	 y="0px" viewBox="0 0 100 100" style="enable-background:new 0 0 100 100;" xml:space="preserve">
<style type="text/css">
	.st0{fill:#FFFFFF;}
	.st1{fill:#127C56;}
</style>
<path class="st0" d="M89.3,95H10.7C7.6,95,5,92.4,5,89.3V10.7C5,7.6,7.6,5,10.7,5h78.7c3.1,0,5.7,2.6,5.7,5.7v78.7
	C95,92.4,92.4,95,89.3,95z"/>
<g>
	<path class="st1" d="M87.9,35.5c-0.1,2.7-0.4,5.3-0.7,8c-0.6,4.3-1.7,8.6-3.6,12.5c-1.8,3.8-4.2,7.5-7.6,10.1
		c-3.3,2.4-7.1,4-11.2,4.5c-1.6,0.2-3.2,0.1-4.8,0.1c-1.2,0-1.6-0.1-1.8-1.3c-0.4-3.5,0-6.9,0.8-10.3c1-4.3,2.6-8.4,4.5-12.4
		c2.7-5.6,5.9-11,9.3-16.1c1.3-2,2.7-3.9,4.1-5.9c-0.1-0.1-0.2,0-0.3,0c-1.2,1-2.4,2-3.5,3c-2.6,2.2-4.9,4.6-7.3,7
		c-1.9,2-3.7,4.1-5.5,6.2c-1.4,1.7-2.7,3.4-3.9,5.3c-2.4,3.7-4.6,7.5-6,11.7c-0.2,0.5-0.3,0.9-0.5,1.4c-0.1,0.4-0.4,0.5-0.7,0.2
		c-0.4-0.4-0.8-0.7-1.1-1.1c-1.4-1.5-3.1-2.7-4.8-3.8c-0.5-0.3-0.7-0.6-0.7-1.2c-0.2-3.7,0.6-7.2,2.3-10.5c1.1-2.1,2.5-4,4-5.8
		c3.5-3.9,7.5-7.2,11.8-10.1c3.1-2.1,6.4-4,9.7-5.8c5.1-2.7,10.4-5.1,15.7-7.4c0.2-0.1,0.4-0.1,0.5,0c0,0.1,0.1,0.1,0.1,0.2
		c0.9,4.8,1.1,9.7,1.2,14.6C88,30.8,88,33.1,87.9,35.5z"/>
	<path class="st1" d="M11.6,48.8c0.1-0.1,0.2-0.1,0.3-0.2c0.2-0.1,0.4-0.1,0.6-0.1c3.1-0.1,6.3,0,9.4,0.2C25,49,28,49.4,31,50.2
		c2.8,0.7,5.6,1.6,8.2,2.8c3.4,1.5,6.5,3.6,9,6.2c0.2,0.2,0.5,0.5,0.7,0.7c2.8,3.1,4.7,6.6,5.7,10.7c0.3,1.3,0.5,2.5,0.6,3.8
		c0,0.2,0.1,0.6-0.2,0.7c-0.3,0.1-0.4-0.2-0.6-0.3c-2.4-2.2-4.9-4.1-7.5-5.9c-4.8-3.4-9.9-6.2-15.1-8.9c-3.1-1.5-6.2-3-9.5-4.2
		c0.8,0.7,1.7,1.4,2.5,2.1c1.5,1.3,3.1,2.6,4.6,3.9c2.9,2.5,5.6,5.2,8.2,7.9c3.6,3.8,7,7.8,9.9,12.2c0.5,0.7,0.5,0.8-0.2,1.2
		c-4.9,2.9-10.4,3.9-15.7,1.4c-3.6-1.7-6.5-4.5-8.8-7.7c-1.8-2.4-3.3-5-4.6-7.6c-1.4-2.7-2.5-5.5-3.6-8.3c-1-2.8-1.9-5.7-2.6-8.6
		c-0.2-0.9-0.5-1.9-0.7-2.8c0-0.2-0.1-0.4,0-0.6C11.4,48.9,11.5,48.8,11.6,48.8z"/>
</g>
</svg>
