<svg width="18" height="20" viewBox="0 0 18 20" fill="none" xmlns="http://www.w3.org/2000/svg">
<path fill-rule="evenodd" clip-rule="evenodd" d="M8.17724 2.16366C8.43809 2.05561 8.71766 2 9.00001 2C9.28235 2 9.56192 2.05561 9.82277 2.16366C10.0836 2.27171 10.3206 2.43007 10.5203 2.62972C10.7199 2.82937 10.8783 3.06638 10.9863 3.32723C11.0944 3.58808 11.15 3.86766 11.15 4.15V4.5H6.85001V4.15C6.85001 3.86766 6.90562 3.58808 7.01366 3.32723C7.12171 3.06638 7.28008 2.82937 7.47973 2.62972C7.67937 2.43007 7.91639 2.27171 8.17724 2.16366ZM4.85001 6.5V7.3C4.85001 7.85228 5.29772 8.3 5.85001 8.3C6.40229 8.3 6.85001 7.85228 6.85001 7.3V6.5H11.15V7.3C11.15 7.85228 11.5977 8.3 12.15 8.3C12.7023 8.3 13.15 7.85228 13.15 7.3V6.5H15.2V18H2.8V6.5H4.85001ZM4.85001 4.5V4.15C4.85001 3.60501 4.95735 3.06537 5.16591 2.56186C5.37446 2.05836 5.68015 1.60087 6.06551 1.21551C6.45088 0.830144 6.90837 0.524457 7.41187 0.3159C7.91537 0.107343 8.45502 0 9.00001 0C9.54499 0 10.0846 0.107343 10.5881 0.3159C11.0916 0.524457 11.5491 0.830144 11.9345 1.21551C12.3199 1.60087 12.6255 2.05836 12.8341 2.56186C13.0427 3.06537 13.15 3.60501 13.15 4.15V4.5H15.3C15.8039 4.5 16.2872 4.70018 16.6435 5.0565C16.9998 5.41282 17.2 5.89609 17.2 6.4V18.1C17.2 18.6039 16.9998 19.0872 16.6435 19.4435C16.2872 19.7998 15.8039 20 15.3 20H2.7C2.19609 20 1.71282 19.7998 1.3565 19.4435C1.00018 19.0872 0.800003 18.6039 0.800003 18.1V6.4C0.800003 5.89609 1.00018 5.41282 1.3565 5.0565C1.71282 4.70018 2.19609 4.5 2.7 4.5H4.85001Z" fill="current"/>
</svg>
