<svg width="85" height="85" viewBox="0 0 85 85" fill="none" xmlns="http://www.w3.org/2000/svg">
<path d="M56.5625 48.125V65M48.125 56.5625H65M25.625 36.875H31.25C32.7418 36.875 34.1726 36.2824 35.2275 35.2275C36.2824 34.1726 36.875 32.7418 36.875 31.25V25.625C36.875 24.1332 36.2824 22.7024 35.2275 21.6475C34.1726 20.5926 32.7418 20 31.25 20H25.625C24.1332 20 22.7024 20.5926 21.6475 21.6475C20.5926 22.7024 20 24.1332 20 25.625V31.25C20 32.7418 20.5926 34.1726 21.6475 35.2275C22.7024 36.2824 24.1332 36.875 25.625 36.875ZM53.75 36.875H59.375C60.8668 36.875 62.2976 36.2824 63.3525 35.2275C64.4074 34.1726 65 32.7418 65 31.25V25.625C65 24.1332 64.4074 22.7024 63.3525 21.6475C62.2976 20.5926 60.8668 20 59.375 20H53.75C52.2582 20 50.8274 20.5926 49.7725 21.6475C48.7176 22.7024 48.125 24.1332 48.125 25.625V31.25C48.125 32.7418 48.7176 34.1726 49.7725 35.2275C50.8274 36.2824 52.2582 36.875 53.75 36.875ZM25.625 65H31.25C32.7418 65 34.1726 64.4074 35.2275 63.3525C36.2824 62.2976 36.875 60.8668 36.875 59.375V53.75C36.875 52.2582 36.2824 50.8274 35.2275 49.7725C34.1726 48.7176 32.7418 48.125 31.25 48.125H25.625C24.1332 48.125 22.7024 48.7176 21.6475 49.7725C20.5926 50.8274 20 52.2582 20 53.75V59.375C20 60.8668 20.5926 62.2976 21.6475 63.3525C22.7024 64.4074 24.1332 65 25.625 65Z" stroke="#787878" stroke-width="2" stroke-linecap="round" stroke-linejoin="round"/>
</svg>
